# xmcd
#
# Track frame offsets:
#	150
#	12040
#	26123
#	36947
#	46636
#	60845
#	71077
#	81693
#	95786
#	107316
#	115849
#	128270
#	138097
#	152006
#	166066
#	176323
#
# Disc length: 2495 seconds
#
# Revision: 1
# Processed by: cddbd v1.5.2PL0 Copyright (c) Steve Scherf et al.
# Submitted via: audiograbber 1.83.01
#
DISCID=bb09bd10
DTITLE=Various Artist - Country Love Songs 2 (Desperado)
DYEAR=2006
DGENRE=Country
TTITLE0=Skeeter Davis - The End Of The World
TTITLE1=Frankie Laine - Don`t Fence Me In
TTITLE2=Patsy Cline - I Cried All The Way To The Altar
TTITLE3=Willie Nelson - Let`s Pretend We`re Strangers
TTITLE4=Margo Smith - It Only Hurts For A Little While
TTITLE5=Dolly Parton - Release Me
TTITLE6=Hank Locklin - Please Help Me I´m Falling
TTITLE7=Billie Joe Spears - Witch Way You Goin` Billy
TTITLE8=Kenny Rogers - Me And Bobby McGhee
TTITLE9=Waylon Jennings - Abilene
TTITLE10=Lynn Anderson - Stand By Your Man
TTITLE11=Johnny Chash - Ballade Of A Teenage Queen
TTITLE12=Freddy Fender - Baby I Want To Love You
TTITLE13=Lynn Anderson - Cry
TTITLE14=Frankie Laine - I Believe
TTITLE15=Roger Miller - Husbands And Wives
EXTD=
EXTT0=
EXTT1=
EXTT2=
EXTT3=
EXTT4=
EXTT5=
EXTT6=
EXTT7=
EXTT8=
EXTT9=
EXTT10=
EXTT11=
EXTT12=
EXTT13=
EXTT14=
EXTT15=
PLAYORDER=
